<svg data-v-0dd9719b="" version="1.0" xmlns="http://www.w3.org/2000/svg" xmlns:xlink="http://www.w3.org/1999/xlink" width="100%" height="100%" viewBox="0 0 340.000000 250.000000" preserveAspectRatio="xMidYMid meet" color-interpolation-filters="sRGB" style="margin: auto;"> <rect data-v-0dd9719b="" x="0" y="0" width="100%" height="100%" fill="#fff" fill-opacity="1" class="background"></rect> <rect data-v-0dd9719b="" x="0" y="0" width="100%" height="100%" fill="url(#watermark)" fill-opacity="1" class="watermarklayer"></rect> <g data-v-0dd9719b="" fill="#fbc600" class="iconblsvg-g iconsvg" transform="translate(64.54425048828125,110.06832885742188)"><g class="tp-name"><g data-gra="path-name" transform="translate(0, 2.4866714477539062)"><g transform="scale(1)"><path d="M26.28-24.78L26.28 0 17.49 0 8.44-17.46 8.29-17.46Q8.61-13.34 8.61-11.17L8.61-11.17 8.61 0 2.68 0 2.68-24.78 11.43-24.78 20.44-7.56 20.55-7.56Q20.31-11.31 20.31-13.58L20.31-13.58 20.31-24.78 26.28-24.78ZM38.36 0L31.63 0 31.63-24.78 38.36-24.78 38.36 0ZM66.25 0L58.93 0 57.71-4.64 49.65-4.64 48.4 0 41.04 0 49.13-24.89 58.06-24.89 66.25 0ZM51.04-10.14L56.32-10.14 55.25-14.21Q54.87-15.56 54.34-17.72 53.81-19.87 53.64-20.8L53.64-20.8Q53.48-19.94 53.04-17.95 52.59-15.97 51.04-10.14L51.04-10.14Z" transform="translate(-2.680000066757202, 24.889999389648438)"></path></g></g> <g transform="translate(66.56999969482422, 0)"><g><g class="imagesvg"><g><rect fill="#fbc600" fill-opacity="0" stroke-width="2" x="0" y="0" width="30.11150806889118" height="29.86334368288639" class="image-rect"></rect> <svg x="0" y="0" width="30.11150806889118" height="29.86334368288639" filtersec="colorsb4989528098" class="image-svg-svg primary" style="overflow: visible;"><svg version="1.1" id="图层_1" xmlns="http://www.w3.org/2000/svg" xmlns:xlink="http://www.w3.org/1999/xlink" x="0px" y="0px" viewBox="0.6899986267089844 0.6800000071525574 104.30999755859375 103.45000457763672" enable-background="new 0 0 106 105" xml:space="preserve">
<g>
	<path fill="#FBC600" d="M52.85,0.68c-28.8,0-52.16,23.35-52.16,52.16c0,6.1,1.05,11.95,2.99,17.39
		c3.83-12.69,10.1-27.21,20.19-37.05c17.06-16.63,38.06-16.47,50.35-9.27c9.1,5.32,12.84,14.81,12.99,15.21l1.85,4.91l-5.25,0.05
		c-1.51,0.01-9.07,0.53-9.62,9.16c-0.37,5.87,13.92,14.94,26.31,20.78c2.89-6.47,4.5-13.64,4.5-21.18
		C105,24.03,81.66,0.68,52.85,0.68z"></path>
	<path fill="#E50012" d="M66.89,53.4c0-0.21,0.01-0.42,0.03-0.62c0.56-9.08,6.16-13.32,11.31-15.02c-1.6-2.44-4.11-5.47-7.69-7.56
		c-9.98-5.83-27.24-5.76-41.58,8.2C17.85,49.23,11.73,67.1,8.53,80.33c1.42,2.27,3.01,4.4,4.75,6.42c0.56-2.11,1.19-4.63,1.89-7.56
		c3.12-11.94,8.62-26.9,17.88-35.93c11.88-11.57,25.79-11.86,33.69-7.25c0.22,0.13,0.4,0.29,0.6,0.42
		c-4.4,3.91-7.05,9.43-7.47,16.08c0,0.01-0.03,1.04-0.03,1.04c0,9.93,8.78,19.67,26.01,29c2.7,1.36,5.19,2.45,7.34,3.29
		c1.4-1.71,2.69-3.5,3.86-5.37C86.08,75.34,66.89,64.75,66.89,53.4z"></path>
	<path fill="#FBC600" d="M55.97,82.88c-10.79-9.01-11.75-21.56-11.75-21.56s-5,4.02-8.38,13.51c-2.59,7.31-4.15,18.85-4.79,24.5
		c6.69,3.07,14.1,4.8,21.94,4.8c9.52,0,18.43-2.53,26.13-6.96C75.63,95.58,64.88,90.33,55.97,82.88z"></path>
</g>
</svg></svg> <!----></g></g></g></g> <g data-gra="path-name-1" fill="#fbc600" transform="translate(99.6815071105957, 2.4866714477539062)"><g transform="scale(1)"><path d="M13.61-19.31L13.61 0 6.92 0 6.92-19.31 0.86-19.31 0.86-24.78 19.65-24.78 19.65-19.31 13.61-19.31ZM31.58-9.02L29.89-9.02 29.89 0 23.19 0 23.19-24.78 31.31-24.78Q41.41-24.78 41.41-17.46L41.41-17.46Q41.41-13.16 37.21-10.8L37.21-10.8 44.43 0 36.84 0 31.58-9.02ZM29.89-19.72L29.89-14.05 31.14-14.05Q34.65-14.05 34.65-17.16L34.65-17.16Q34.65-19.72 31.21-19.72L31.21-19.72 29.89-19.72ZM69.22 0L61.89 0 60.67-4.64 52.62-4.64 51.37 0 44.01 0 52.09-24.89 61.03-24.89 69.22 0ZM54.01-10.14L59.28-10.14 58.21-14.21Q57.84-15.56 57.31-17.72 56.77-19.87 56.6-20.8L56.6-20.8Q56.45-19.94 56-17.95 55.55-15.97 54.01-10.14L54.01-10.14ZM92.93-12.92L92.93-12.92Q92.93-6.71 89.52-3.36 86.1 0 79.91 0L79.91 0 71.89 0 71.89-24.78 80.47-24.78Q86.44-24.78 89.69-21.73 92.93-18.68 92.93-12.92ZM85.98-12.68L85.98-12.68Q85.98-16.09 84.63-17.73 83.29-19.38 80.54-19.38L80.54-19.38 78.59-19.38 78.59-5.49 80.08-5.49Q83.13-5.49 84.56-7.26 85.98-9.04 85.98-12.68ZM112.09-5.46L112.09 0 97.37 0 97.37-24.78 112.09-24.78 112.09-19.41 104.07-19.41 104.07-15.51 111.5-15.51 111.5-10.14 104.07-10.14 104.07-5.46 112.09-5.46Z" transform="translate(-0.8600000143051147, 24.889999389648438)"></path></g></g></g> <!----></g><defs v-gra="od"></defs></svg>